<svg width="516" height="315" viewBox="0 0 516 315" fill="none" xmlns="http://www.w3.org/2000/svg">
<g clip-path="url(#clip0)">
<path d="M195.125 197.938C194.911 197.725 189.834 192.585 185.53 180.388C181.581 169.199 177.597 149.686 181.04 120.27C187.563 64.5427 154.113 29.0279 153.774 28.6756L154.764 27.7251C154.85 27.8144 163.451 36.8518 171.102 52.7172C181.231 73.7554 185.151 97.2436 182.403 120.429C175.891 176.061 195.891 196.763 196.094 196.966L195.125 197.938Z" fill="#F2F2F2"/>
<path d="M143.503 27.742C148.43 27.742 152.424 23.7498 152.424 18.8251C152.424 13.9004 148.43 9.9082 143.503 9.9082C138.577 9.9082 134.583 13.9004 134.583 18.8251C134.583 23.7498 138.577 27.742 143.503 27.742Z" fill="#F2F2F2"/>
<path d="M178.646 53.056C183.572 53.056 187.566 49.0638 187.566 44.1391C187.566 39.2144 183.572 35.2222 178.646 35.2222C173.719 35.2222 169.726 39.2144 169.726 44.1391C169.726 49.0638 173.719 53.056 178.646 53.056Z" fill="#F2F2F2"/>
<path d="M165.19 78.9339C170.116 78.9339 174.11 74.9417 174.11 70.017C174.11 65.0923 170.116 61.1001 165.19 61.1001C160.263 61.1001 156.269 65.0923 156.269 70.017C156.269 74.9417 160.263 78.9339 165.19 78.9339Z" fill="#F2F2F2"/>
<path d="M192.248 91.3939C197.174 91.3939 201.168 87.4017 201.168 82.477C201.168 77.5523 197.174 73.5601 192.248 73.5601C187.321 73.5601 183.328 77.5523 183.328 82.477C183.328 87.4017 187.321 91.3939 192.248 91.3939Z" fill="#F2F2F2"/>
<path d="M169.754 126.539C174.68 126.539 178.674 122.547 178.674 117.622C178.674 112.697 174.68 108.705 169.754 108.705C164.827 108.705 160.834 112.697 160.834 117.622C160.834 122.547 164.827 126.539 169.754 126.539Z" fill="#F2F2F2"/>
<path d="M200.438 196.979C200.438 196.979 186.564 177.771 208.655 155.434L200.438 196.979Z" fill="#F2F2F2"/>
<path d="M189.686 199.193C189.686 199.193 180.204 177.48 149.727 185.125L189.686 199.193Z" fill="#F2F2F2"/>
<path d="M363.232 267.485C363.194 267.035 362.398 256.254 369.331 238.184C375.693 221.605 390.092 195.508 422.564 165.332C484.082 108.166 480.441 35.2617 480.397 34.5314L482.447 34.4087C482.459 34.5939 483.486 53.2314 476.806 78.7287C467.927 112.522 449.597 143.085 423.963 166.836C362.55 223.905 365.244 266.888 365.278 267.316L363.232 267.485Z" fill="#F2F2F2"/>
<path d="M478.255 26.6907C485.628 26.6907 491.604 20.7164 491.604 13.3468C491.604 5.97718 485.628 0.00292969 478.255 0.00292969C470.883 0.00292969 464.906 5.97718 464.906 13.3468C464.906 20.7164 470.883 26.6907 478.255 26.6907Z" fill="#F2F2F2"/>
<path d="M493.726 89.6145C501.099 89.6145 507.075 83.6402 507.075 76.2706C507.075 68.901 501.099 62.9268 493.726 62.9268C486.354 62.9268 480.377 68.901 480.377 76.2706C480.377 83.6402 486.354 89.6145 493.726 89.6145Z" fill="#F2F2F2"/>
<path d="M453.278 106.049C460.651 106.049 466.627 100.074 466.627 92.7047C466.627 85.3351 460.651 79.3608 453.278 79.3608C445.906 79.3608 439.93 85.3351 439.93 92.7047C439.93 100.074 445.906 106.049 453.278 106.049Z" fill="#F2F2F2"/>
<path d="M472.015 146.487C479.387 146.487 485.363 140.513 485.363 133.143C485.363 125.774 479.387 119.799 472.015 119.799C464.642 119.799 458.666 125.774 458.666 133.143C458.666 140.513 464.642 146.487 472.015 146.487Z" fill="#F2F2F2"/>
<path d="M412.276 164.714C419.648 164.714 425.624 158.739 425.624 151.37C425.624 144 419.648 138.026 412.276 138.026C404.903 138.026 398.927 144 398.927 151.37C398.927 158.739 404.903 164.714 412.276 164.714Z" fill="#F2F2F2"/>
<path d="M370.216 271.545C370.216 271.545 373.051 236.205 419.9 232.179L370.216 271.545Z" fill="#F2F2F2"/>
<path d="M355.816 263.64C355.816 263.64 366.086 229.705 323.942 208.857L355.816 263.64Z" fill="#F2F2F2"/>
<path d="M64.4575 233.692C60.0077 250.135 44.7663 260.319 44.7663 260.319C44.7663 260.319 36.7393 243.843 41.1891 227.4C45.6388 210.957 60.8803 200.773 60.8803 200.773C60.8803 200.773 68.9072 217.249 64.4575 233.692Z" fill="#F5F5F5"/>
<path d="M23.977 233.692C28.4267 250.135 43.6682 260.319 43.6682 260.319C43.6682 260.319 51.6952 243.843 47.2454 227.4C42.7956 210.957 27.5542 200.773 27.5542 200.773C27.5542 200.773 19.5272 217.249 23.977 233.692Z" fill="#F5F5F5"/>
<path d="M30.5156 230.158C42.7258 242.04 44.2172 260.305 44.2172 260.305C44.2172 260.305 25.9119 259.306 13.7016 247.424C1.49139 235.542 0 217.277 0 217.277C0 217.277 18.3053 218.276 30.5156 230.158Z" fill="#3F3D56"/>
<path d="M57.9189 230.158C45.7086 242.04 44.2172 260.305 44.2172 260.305C44.2172 260.305 62.5225 259.306 74.7328 247.424C86.9431 235.542 88.4344 217.277 88.4344 217.277C88.4344 217.277 70.1291 218.276 57.9189 230.158Z" fill="#3F3D56"/>
<path d="M516 295.649H4.51004V296.838H516V295.649Z" fill="#2F2E41"/>
<path d="M274.482 113.031C274.482 113.031 269.173 107.725 256.964 108.786C256.964 108.786 139.112 96.5808 136.458 118.338C133.804 140.095 133.273 152.831 140.174 157.607C140.174 157.607 162.736 178.038 151.057 196.081L144.686 206.694L394.722 204.571C394.722 204.571 397.376 165.833 405.339 158.403C413.302 150.974 415.957 111.705 405.339 110.643C394.722 109.582 271.562 103.745 274.482 113.031Z" fill="#3F3D56"/>
<path d="M142.563 156.281C142.563 156.281 67.7115 173.793 97.4398 206.695L102.218 211.471L100.094 284.703H445.154L448.87 213.063L453.117 204.572C453.117 204.572 479.564 172.865 403.168 161.389L389.413 196.081L156.896 194.489C156.896 194.489 155.304 155.22 142.563 156.281Z" fill="#3F3D56"/>
<path d="M128.23 279.926H106.464V296.377H128.23V279.926Z" fill="#3F3D56"/>
<path d="M441.438 279.926H419.673V296.377H441.438V279.926Z" fill="#3F3D56"/>
<path d="M270.444 196.347C270.444 196.347 218.476 159.465 153.711 196.612L134.6 224.206L138.316 247.025C138.316 247.025 272.624 249.148 274.217 234.82C275.809 220.492 270.444 196.347 270.444 196.347Z" fill="#3F3D56"/>
<path d="M392.068 196.611C392.068 196.611 300.891 167.425 273.486 196.611L276.871 238.534C276.871 238.534 410.117 248.617 412.241 241.718C414.364 234.819 415.426 222.614 415.426 222.614L392.068 196.611Z" fill="#3F3D56"/>
<path opacity="0.1" d="M392.068 196.611C392.068 196.611 300.891 167.425 273.486 196.611L273.561 197.547C273.472 197.113 273.42 196.877 273.42 196.877C273.42 196.877 218.476 159.465 153.711 196.611L134.6 224.206L138.316 247.025C138.316 247.025 268.369 249.79 276.724 236.717L276.871 238.534C276.871 238.534 410.117 248.617 412.241 241.718C414.364 234.819 415.426 222.614 415.426 222.614L392.068 196.611Z" fill="black"/>
<path d="M144.686 123.38C170.488 122.831 194.948 119.558 217.414 112.236C217.961 138.069 221.676 162.229 230.155 183.876C205.038 179.313 179.545 183.828 153.711 196.612C158.351 173.259 154.34 148.71 144.686 123.38Z" fill="#F5F5F5"/>
<path d="M408.524 127.625C382.723 127.076 358.263 123.803 335.796 116.481C335.25 142.314 331.534 166.475 323.056 188.121C348.173 183.558 373.666 188.073 399.5 200.857C394.86 177.504 398.871 152.955 408.524 127.625Z" fill="#F5F5F5"/>
<path d="M242.828 120.846C244.331 119.777 245.989 118.945 247.745 118.381C258.879 114.239 270.545 111.701 282.394 110.841C292.697 110.111 303.863 110.978 311.91 117.451C313.161 118.369 314.186 119.562 314.904 120.937C315.916 123.121 315.609 125.66 315.281 128.044C315.208 128.969 314.975 129.874 314.592 130.72C313.509 132.781 310.843 133.503 308.528 133.255C306.212 133.008 304.039 132.029 301.755 131.575C300.341 131.328 298.912 131.183 297.477 131.139L283.152 130.364C274.245 129.882 265.219 129.408 256.481 131.205C253.792 131.688 251.192 132.584 248.776 133.859C246.78 134.98 245.436 136.587 243.584 134.518C240.331 130.883 238.53 124.203 242.828 120.846Z" fill="#2F2E41"/>
<path d="M265.026 127.178C265.026 127.178 284.294 118.544 291.602 128.507C298.911 138.469 287.616 134.484 287.616 134.484L274.992 138.469L261.04 135.812L265.026 127.178Z" fill="#F2F2F2"/>
<path d="M266.023 120.869C266.023 120.869 268.68 133.488 266.687 136.808C264.694 140.129 277.982 144.778 277.982 144.778L290.606 139.465C290.606 139.465 287.284 118.876 290.606 114.891L266.023 120.869Z" fill="#FFB9B9"/>
<path opacity="0.1" d="M266.023 120.869C266.023 120.869 268.68 133.488 266.687 136.808C264.694 140.129 277.982 144.778 277.982 144.778L290.606 139.465C290.606 139.465 287.284 118.876 290.606 114.891L266.023 120.869Z" fill="black"/>
<path d="M253.573 272.604C255.474 276.248 256.706 280.194 257.963 284.106C257.982 284.237 258.028 284.362 258.098 284.473C258.169 284.585 258.262 284.68 258.372 284.753C258.481 284.826 258.605 284.875 258.735 284.897C258.865 284.919 258.999 284.913 259.126 284.879L270.944 284.866C272.403 284.865 274.359 284.396 274.344 282.938C274.334 281.914 273.286 281.275 272.507 280.611C270.343 278.765 269.78 275.723 268.884 273.025C267.142 267.827 263.786 263.321 259.304 260.163C258.699 259.689 258.001 259.345 257.257 259.151C256.507 259.043 255.744 259.084 255.011 259.273C252.937 259.692 245.19 261.123 246.653 264.139C247.283 265.438 249.619 266.79 250.598 268.004C251.739 269.435 252.735 270.977 253.573 272.604Z" fill="#575A89"/>
<path d="M294.668 258.903C294.252 259.778 293.788 260.631 293.279 261.456C291.567 264.279 289.547 266.912 287.952 269.802C286.958 271.606 286.121 273.555 286.011 275.611C285.901 277.667 286.625 279.855 288.266 281.1C289.982 282.401 292.334 282.462 294.466 282.158C296.598 281.855 298.718 281.244 300.865 281.405C300.141 277.309 303.597 273.705 304.461 269.636C304.704 268.493 304.74 267.308 305.065 266.186C305.415 265.16 305.863 264.17 306.403 263.23C308.123 259.88 309.34 256.294 310.012 252.589C310.093 252.14 299.507 252.066 298.514 252.281C295.415 252.951 295.868 256.334 294.668 258.903Z" fill="#575A89"/>
<path d="M213.072 194.556C210.05 199.284 210.746 205.549 212.869 210.743C214.992 215.937 218.37 220.528 220.682 225.641C222.156 228.9 223.19 232.356 224.85 235.524C226.905 239.448 229.907 242.907 231.286 247.116C232.165 249.799 232.367 252.739 233.791 255.177C234.652 256.481 235.634 257.699 236.725 258.817C239.793 262.33 242.096 266.442 243.489 270.893C244.791 267.017 248.689 264.475 252.692 263.637C256.696 262.799 260.844 263.368 264.894 263.94C262.635 260.441 260.354 256.898 259.007 252.957C257.704 249.146 257.32 245.091 256.443 241.16C254.643 233.099 250.8 225.664 246.995 218.333L266.553 216.782C269.745 216.461 272.954 216.342 276.162 216.426C281.21 216.664 286.155 217.901 291.177 218.472C296.198 219.044 301.51 218.894 305.985 216.547C297.428 228.819 292.972 243.482 293.253 258.439C295.165 256.958 297.385 255.923 299.749 255.41C302.114 254.897 304.563 254.919 306.917 255.474C309.272 256.03 311.473 257.105 313.358 258.62C315.243 260.136 316.766 262.053 317.814 264.233C325.479 253.763 324.568 239.187 330.641 227.721C331.89 225.363 333.42 223.167 334.768 220.865C337.434 216.311 339.367 211.373 341.29 206.459C342.988 202.115 344.7 197.282 343.07 192.912C342.394 191.254 341.409 189.739 340.167 188.449C336.663 184.587 331.785 181.73 326.571 181.611C318.566 181.428 311.953 187.36 304.931 191.206C296.66 195.736 287.011 197.537 277.604 196.871C267.959 196.188 258.747 193.032 249.557 190.253C244.96 188.798 240.288 187.593 235.56 186.643C231.62 185.904 227.867 186.723 223.983 187.73C219.755 188.827 215.506 190.75 213.072 194.556Z" fill="#2F2E41"/>
<path d="M296.585 108.25C296.581 113.533 294.48 118.598 290.742 122.334C287.005 126.07 281.938 128.17 276.653 128.174C275.465 128.176 274.28 128.07 273.112 127.856C269.382 127.182 265.921 125.46 263.135 122.889C260.35 120.319 258.355 117.009 257.386 113.346C256.416 109.683 256.511 105.819 257.661 102.208C258.81 98.5973 260.965 95.389 263.874 92.9594C266.783 90.5298 270.325 88.9798 274.083 88.4911C277.842 88.0024 281.663 88.5954 285.096 90.2004C288.53 91.8054 291.435 94.356 293.47 97.5529C295.505 100.75 296.585 104.46 296.585 108.25Z" fill="#FFB9B9"/>
<path d="M265.026 127.178C265.026 127.178 268.68 128.839 270.009 130.167C271.338 131.495 275.324 138.801 281.968 134.152C288.612 129.503 289.277 126.846 291.27 126.846C293.263 126.846 295.921 130.831 295.921 130.831L314.192 185.625C309.268 191.181 303.56 195.991 297.25 199.904C286.619 206.546 273.995 209.866 268.016 207.21C262.036 204.553 250.741 202.561 248.748 197.247C246.755 191.934 243.433 175.994 243.433 175.994L252.734 135.48L265.026 127.178Z" fill="#F2F2F2"/>
<path d="M262.461 182.595C263.909 179.467 264.12 175.927 264.242 172.482C264.438 169.071 264.347 165.649 263.972 162.253C263.383 157.81 261.936 153.53 261.022 149.143C260.221 145.295 259.831 141.372 259.86 137.442C259.873 135.648 260.003 133.76 260.981 132.257C261.663 131.208 262.73 130.395 263.156 129.219C263.991 126.912 261.927 124.497 259.664 123.547C256.972 122.417 253.895 122.492 251.063 123.201C248.231 123.911 245.589 125.215 242.973 126.51C241.083 127.445 239.153 128.41 237.687 129.926C235.625 132.059 234.718 135.03 233.986 137.905C233.399 140.207 232.879 142.606 233.324 144.938C234.049 148.726 237.137 151.574 238.784 155.061C240.696 159.111 240.567 163.829 239.806 168.242C239.046 172.655 237.696 176.969 237.28 181.427C236.863 185.886 237.502 190.678 240.297 194.178C241.435 195.604 244.524 198.984 246.609 198.601C248.246 198.301 250.62 194.697 251.94 193.555C255.75 190.255 260.272 187.32 262.461 182.595Z" fill="#2F2E41"/>
<path d="M297.271 125.012C297.329 128.716 295.695 132.237 293.775 135.405C291.854 138.574 289.597 141.57 288.181 144.994C286.422 149.28 286.063 154.012 287.155 158.514C287.561 160.047 288.051 161.558 288.621 163.038L292.261 173.019C292.751 174.589 293.462 176.08 294.372 177.45C295.195 178.498 296.161 179.427 297.241 180.208C300.006 182.44 303.188 184.1 306.602 185.09C310.027 185.995 313.774 185.938 317.01 184.496C317.361 170.965 319.536 157.543 323.476 144.592C324.203 142.202 324.999 139.685 324.437 137.25C323.809 134.522 321.617 132.474 319.534 130.604C313.162 124.885 306.156 118.877 297.627 118.106C292.691 117.66 297.229 122.334 297.271 125.012Z" fill="#2F2E41"/>
<path d="M253.669 202.231C254.175 203.22 254.489 204.296 254.989 205.288C255.726 206.618 256.638 207.844 257.7 208.932C262.142 213.856 267.573 218.761 274.199 219.059C274.857 219.12 275.521 219.036 276.144 218.814C277.303 218.332 277.988 217.09 278.213 215.856C278.683 213.284 277.547 210.717 276.41 208.363C273.945 203.26 271.172 198.027 266.557 194.736C262.008 191.492 255.913 190.704 250.608 192.337C248.204 193.078 244.218 194.37 247.401 196.563C249.815 198.226 252.27 199.492 253.669 202.231Z" fill="#FFB9B9"/>
<path d="M257.655 282.603C255.675 285.293 256.072 289.14 254.317 291.983C252.796 294.448 249.93 295.74 248.027 297.924C247.42 298.649 246.879 299.428 246.41 300.249C244.646 303.204 243.211 306.991 244.949 309.962C246.347 312.351 249.286 313.285 251.982 313.922C255.388 314.727 258.928 315.37 262.373 314.756C265.819 314.141 269.187 312.032 270.416 308.755C270.657 307.931 270.944 307.121 271.276 306.329C273.143 302.654 279.002 302.614 280.913 298.961C282.251 296.405 281.021 293.314 279.792 290.704L276.038 282.731C274.792 280.086 269.742 281.607 267.109 280.973C263.675 280.146 260.126 279.235 257.655 282.603Z" fill="#2F2E41"/>
<path d="M286.692 275.753C285.099 276.869 284.069 278.621 283.296 280.405C281.438 284.69 280.8 289.387 280.18 294.016C279.932 295.87 279.685 297.768 280.073 299.598C280.873 303.378 284.3 306.162 287.989 307.318C291.677 308.474 295.633 308.296 299.494 308.106C300.734 308.046 302.023 307.971 303.11 307.372C305.051 306.303 305.809 303.789 305.476 301.599C305.143 299.409 303.947 297.461 302.775 295.581C301.604 293.701 300.406 291.754 300.07 289.564C299.506 285.882 301.099 280.476 298.835 277.144C296.567 273.805 289.72 273.633 286.692 275.753Z" fill="#2F2E41"/>
<path d="M296.084 97.8657C295.729 96.6742 294.948 95.655 293.89 95.0026C293.944 93.7262 293.788 92.4496 293.426 91.2241C292.219 87.6569 289.36 87.8614 286.662 86.2842C285.491 85.6 285.563 84.9952 284.954 83.8713C284.155 82.398 282.959 81.1782 281.502 80.3505C279.771 79.2481 277.944 78.1127 275.896 77.9732C271.593 77.6799 268.293 81.726 264.18 83.0246C262.367 83.597 260.419 83.6206 258.597 84.1617C256.774 84.7027 254.956 85.9947 254.684 87.8757C254.559 88.7441 254.78 89.6349 254.653 90.5031C254.4 92.2286 252.886 93.437 251.872 94.8562C249.63 97.9946 249.887 102.428 251.68 105.843C252.057 106.55 252.489 107.226 252.972 107.865C253.122 109.479 253.585 111.048 254.337 112.485C256.13 115.899 259.215 118.451 262.437 120.571C262.173 119.438 262.014 118.284 261.959 117.123C261.914 116.736 261.964 116.343 262.106 115.98C262.465 115.23 263.413 115.031 264.136 114.62C265.634 113.769 266.221 111.887 266.265 110.165C266.308 108.444 265.943 106.72 266.123 105.007C266.13 104.614 266.22 104.226 266.386 103.869C266.552 103.512 266.792 103.193 267.088 102.934C267.641 102.619 268.273 102.469 268.908 102.501C271.976 102.376 275.183 102.319 277.889 100.869C278.812 100.374 279.671 99.7194 280.684 99.4552C282.985 98.8556 285.335 100.467 286.661 102.439C287.987 104.412 288.647 106.759 289.871 108.797C291.094 110.834 293.207 112.651 295.571 112.41C295.704 112.41 295.836 112.382 295.958 112.328C296.08 112.274 296.188 112.195 296.277 112.096C296.379 111.913 296.425 111.703 296.408 111.494L296.54 102.458C296.649 100.913 296.495 99.3597 296.084 97.8657Z" fill="#2F2E41"/>
<path d="M233.005 145.131C231.103 147.936 228.91 150.632 227.865 153.855C227.25 155.75 227.059 157.752 226.615 159.693C225.133 166.159 220.853 171.902 220.422 178.521C220.272 179.992 220.488 181.477 221.051 182.844C222.279 185.514 225.218 186.921 228.021 187.806C230.824 188.691 233.834 189.329 236.072 191.235C237.198 192.314 238.22 193.498 239.122 194.77C242.773 199.309 247.683 202.667 253.238 204.424C252.799 201.402 252.593 197.76 255.01 195.892C256.318 194.88 258.066 194.7 259.713 194.558L267.498 193.886C262.307 188.852 256.585 184.397 250.433 180.597C248.28 179.267 245.937 177.865 244.954 175.534C244.34 174.077 244.348 172.445 244.334 170.864C244.28 165.077 243.79 159.302 242.867 153.588C242.226 149.62 241.378 145.688 240.407 141.788C240.135 140.694 238.525 135.783 236.542 136.932C236.076 137.202 235.639 140.318 235.366 140.964C234.717 142.427 233.926 143.823 233.005 145.131Z" fill="#2F2E41"/>
<path opacity="0.1" d="M243.777 153.645C243.865 158.337 242.868 162.985 240.864 167.229C240.343 168.166 239.959 169.174 239.723 170.221C239.375 172.454 240.646 174.615 242.099 176.347C244.965 179.752 248.682 182.337 252.873 183.84" fill="black"/>
<path d="M293.377 129.845L293.846 129.92C293.436 129.855 293.068 129.629 292.824 129.294C292.579 128.958 292.479 128.538 292.544 128.128L297.392 97.5112C297.457 97.101 297.682 96.7334 298.018 96.4893C298.354 96.2452 298.773 96.1445 299.184 96.2094L298.715 96.1353C299.041 96.1869 299.354 96.3023 299.636 96.4748C299.917 96.6473 300.162 96.8736 300.356 97.1407C300.551 97.4079 300.69 97.7107 300.768 98.0318C300.845 98.3529 300.858 98.686 300.806 99.0122L296.255 127.755C296.203 128.081 296.088 128.394 295.915 128.675C295.743 128.957 295.516 129.202 295.249 129.396C294.982 129.59 294.679 129.73 294.358 129.807C294.037 129.884 293.703 129.897 293.377 129.845Z" fill="#2F2E41"/>
<path d="M298.549 96.11L299.26 96.2225L293.922 129.932L293.211 129.82C293.091 129.801 292.976 129.759 292.872 129.695C292.768 129.632 292.678 129.548 292.607 129.45C292.535 129.352 292.484 129.24 292.456 129.122C292.427 129.004 292.422 128.881 292.441 128.761L297.49 96.8793C297.509 96.7593 297.551 96.6441 297.615 96.5405C297.678 96.4369 297.762 96.3468 297.86 96.2754C297.958 96.204 298.07 96.1526 298.188 96.1242C298.306 96.0958 298.429 96.091 298.549 96.11Z" fill="#F5F5F5"/>
<path d="M298.643 100.575L298.506 100.553C298.457 100.546 298.412 100.579 298.404 100.627L297.996 103.201C297.989 103.25 298.022 103.295 298.07 103.303L298.207 103.324C298.256 103.332 298.301 103.299 298.309 103.25L298.717 100.677C298.724 100.628 298.691 100.583 298.643 100.575Z" fill="#464353"/>
<path d="M310.699 123.956C311.431 122.111 312.176 120.202 312.126 118.217C312 116.418 311.454 114.674 310.533 113.123C309.413 111.042 308.015 109.124 306.377 107.42C304.427 105.392 301.61 103.581 298.951 104.502C296.84 105.233 295.636 107.43 294.855 109.523C294.39 110.545 294.206 111.672 294.323 112.789C294.581 114.23 295.695 115.336 296.501 116.557C297.766 118.473 298.308 120.762 298.827 122.998L300.13 128.605L302.368 138.237C302.309 137.983 306.524 133.992 307.025 133.142C308.637 130.406 309.525 126.911 310.699 123.956Z" fill="#FFB9B9"/>
<path d="M322.666 134.533L325.846 141.142C327.377 143.859 328.074 146.968 327.85 150.079L328.039 169.904C328.064 172.553 328.084 175.243 327.386 177.799C327.188 178.652 326.815 179.455 326.29 180.156C325.751 180.761 325.116 181.272 324.41 181.67C318.393 185.428 310.591 187.564 304.234 184.415C302.779 183.639 301.394 182.736 300.098 181.716C297.565 179.84 294.994 177.928 293.099 175.41C291.115 172.774 300.236 162.747 298.902 159.73C296.511 154.327 297.834 141.511 294.124 136.912C293.584 136.243 298.492 136.845 298.472 135.986C298.433 134.248 302.602 131.736 304.21 131.075C306.958 129.945 310.121 127.64 310.581 124.707C316.423 132.365 300.018 155.506 309.237 158.304C309.382 158.397 309.549 158.448 309.72 158.453C309.892 158.459 310.061 158.417 310.211 158.334C310.361 158.251 310.486 158.128 310.572 157.98C310.658 157.832 310.702 157.663 310.7 157.492C311.223 155.303 311.409 153.049 311.791 150.831C312.493 146.793 313.846 142.895 315.795 139.289C316.887 137.268 320.422 129.867 322.666 134.533Z" fill="#2F2E41"/>
<path opacity="0.1" d="M312.811 149.691C312.342 150.95 312.768 152.343 313.129 153.637C314.175 157.39 314.663 161.277 314.578 165.172C314.593 165.241 314.591 165.311 314.572 165.379C314.553 165.446 314.517 165.507 314.469 165.557C314.42 165.607 314.359 165.644 314.293 165.665C314.226 165.685 314.155 165.689 314.087 165.676C312.553 165.77 310.798 165.78 309.757 164.649" fill="black"/>
<path d="M66.3844 295.581H22.3229L14.6584 269.462C14.1914 267.87 14.1018 266.191 14.3967 264.559C14.6917 262.927 15.3631 261.385 16.3577 260.058C17.3523 258.73 18.6427 257.652 20.1266 256.91C21.6105 256.167 23.247 255.781 24.9064 255.781H63.4516C65.0999 255.781 66.7257 256.162 68.202 256.895C69.6782 257.628 70.9647 258.692 71.9607 260.005C72.9568 261.318 73.6354 262.843 73.9433 264.462C74.2513 266.081 74.1802 267.748 73.7358 269.335L66.3844 295.581Z" fill="#3F3D56"/>
<path d="M88.6806 99.3413C87.3156 99.3413 85.9814 98.9367 84.8465 98.1786C83.7116 97.4206 82.827 96.3432 82.3047 95.0826C81.7823 93.822 81.6457 92.435 81.912 91.0967C82.1782 89.7585 82.8355 88.5293 83.8007 87.5645C84.7658 86.5997 85.9955 85.9427 87.3342 85.6765C88.6729 85.4103 90.0605 85.5469 91.3215 86.0691C92.5826 86.5912 93.6604 87.4754 94.4187 88.6099C95.177 89.7444 95.5818 91.0782 95.5818 92.4426C95.5797 94.2716 94.852 96.0251 93.5582 97.3184C92.2644 98.6118 90.5103 99.3392 88.6806 99.3413ZM88.6806 86.6053C87.5256 86.6053 86.3966 86.9476 85.4363 87.5891C84.476 88.2305 83.7276 89.1421 83.2856 90.2088C82.8436 91.2754 82.728 92.4491 82.9533 93.5814C83.1786 94.7137 83.7348 95.7538 84.5514 96.5702C85.3681 97.3866 86.4086 97.9425 87.5413 98.1678C88.6741 98.393 89.8482 98.2774 90.9152 97.8356C91.9822 97.3938 92.8942 96.6456 93.5359 95.6856C94.1775 94.7257 94.52 93.5971 94.52 92.4426C94.5183 90.895 93.9025 89.4113 92.8078 88.3169C91.713 87.2226 90.2287 86.607 88.6806 86.6053Z" fill="#3F3D56"/>
<path d="M340.309 68.0317C338.944 68.0317 337.61 67.6271 336.475 66.8691C335.34 66.111 334.455 65.0336 333.933 63.773C333.411 62.5125 333.274 61.1254 333.54 59.7872C333.806 58.449 334.464 57.2197 335.429 56.2549C336.394 55.2902 337.624 54.6331 338.962 54.3669C340.301 54.1007 341.689 54.2374 342.95 54.7595C344.211 55.2816 345.289 56.1659 346.047 57.3003C346.805 58.4348 347.21 59.7686 347.21 61.133C347.208 62.962 346.48 64.7156 345.186 66.0089C343.893 67.3022 342.138 68.0297 340.309 68.0317ZM340.309 55.2957C339.154 55.2957 338.025 55.6381 337.065 56.2795C336.104 56.9209 335.356 57.8326 334.914 58.8992C334.472 59.9658 334.356 61.1395 334.582 62.2718C334.807 63.4042 335.363 64.4443 336.18 65.2606C336.996 66.077 338.037 66.633 339.17 66.8582C340.302 67.0834 341.476 66.9678 342.543 66.526C343.61 66.0842 344.522 65.336 345.164 64.3761C345.806 63.4161 346.148 62.2875 346.148 61.133C346.146 59.5854 345.531 58.1017 344.436 57.0073C343.341 55.913 341.857 55.2975 340.309 55.2957Z" fill="#3F3D56"/>
<path d="M227.235 18.0424H213.433V4.24512H227.235V18.0424ZM214.495 16.9811H226.174V5.30645H214.495V16.9811Z" fill="#3F3D56"/>
</g>
<defs>
<clipPath id="clip0">
<rect width="516" height="315" fill="white"/>
</clipPath>
</defs>
</svg>
