<svg width="37" height="37" viewBox="0 0 37 37" fill="none" xmlns="http://www.w3.org/2000/svg">
<path d="M11.84 2.21997C6.5357 2.21997 2.22 6.53567 2.22 11.84V25.16C2.22 30.4643 6.5357 34.78 11.84 34.78H25.16C30.4643 34.78 34.78 30.4643 34.78 25.16V11.84C34.78 6.53567 30.4643 2.21997 25.16 2.21997H11.84ZM11.84 3.69997H25.16C29.6636 3.69997 33.3 7.33638 33.3 11.84V25.16C33.3 29.6636 29.6636 33.3 25.16 33.3H11.84C7.33641 33.3 3.7 29.6636 3.7 25.16V11.84C3.7 7.33638 7.33641 3.69997 11.84 3.69997ZM27.38 8.13997C26.562 8.13997 25.9 8.80192 25.9 9.61997C25.9 10.438 26.562 11.1 27.38 11.1C28.198 11.1 28.86 10.438 28.86 9.61997C28.86 8.80192 28.198 8.13997 27.38 8.13997ZM18.5 10.36C14.0138 10.36 10.36 14.0137 10.36 18.5C10.36 22.9862 14.0138 26.64 18.5 26.64C22.9863 26.64 26.64 22.9862 26.64 18.5C26.64 14.0137 22.9863 10.36 18.5 10.36ZM18.5 11.84C22.1855 11.84 25.16 14.8144 25.16 18.5C25.16 22.1855 22.1855 25.16 18.5 25.16C14.8145 25.16 11.84 22.1855 11.84 18.5C11.84 14.8144 14.8145 11.84 18.5 11.84Z" fill="white"/>
</svg>
