<svg width="513" height="361" viewBox="0 0 513 361" fill="none" xmlns="http://www.w3.org/2000/svg">
<g clip-path="url(#clip0)">
<path d="M113.676 36.1618H80.9612C77.816 36.1646 74.8004 37.4136 72.5764 39.6345C70.3524 41.8555 69.1017 44.8669 69.0989 48.0078V83.4277C68.6806 83.4027 68.2624 83.3653 67.8502 83.3154C60.0997 82.5011 52.7312 79.5408 46.5753 74.7682C40.4195 69.9956 35.7211 63.6006 33.01 56.3041C30.2989 49.0077 29.6828 41.1 31.2313 33.4726C32.7797 25.8452 36.4311 18.8014 41.7737 13.1355C47.1164 7.46952 53.9378 3.40674 61.4689 1.40516C69 -0.59642 76.9412 -0.457189 84.3973 1.80716C91.8534 4.07151 98.5278 8.37094 103.668 14.2207C108.808 20.0704 112.21 27.2378 113.489 34.9148C113.558 35.3263 113.62 35.744 113.676 36.1618Z" fill="#F2F2F2"/>
<path d="M499.889 34.9148H80.9613C77.4852 34.9186 74.1526 36.2993 71.6946 38.7539C69.2366 41.2085 67.8541 44.5365 67.8503 48.0078V268.719C67.8541 272.191 69.2366 275.519 71.6946 277.973C74.1526 280.428 77.4852 281.808 80.9613 281.812H499.889C503.365 281.808 506.698 280.428 509.156 277.973C511.614 275.519 512.996 272.191 513 268.719V48.0078C512.996 44.5365 511.614 41.2085 509.156 38.7539C506.698 36.2993 503.365 34.9186 499.889 34.9148ZM511.751 268.719C511.748 271.86 510.498 274.872 508.274 277.093C506.05 279.314 503.034 280.562 499.889 280.565H80.9613C77.816 280.562 74.8005 279.314 72.5765 277.093C70.3525 274.872 69.1018 271.86 69.0989 268.719V48.0078C69.1018 44.8669 70.3525 41.8555 72.5765 39.6345C74.8005 37.4136 77.816 36.1646 80.9613 36.1618H499.889C503.034 36.1646 506.05 37.4136 508.274 39.6345C510.498 41.8555 511.748 44.8669 511.751 48.0078V268.719Z" fill="#3F3D56"/>
<path d="M479.286 70.6835H101.564C101.399 70.6835 101.24 70.6179 101.123 70.5009C101.006 70.384 100.94 70.2254 100.94 70.0601C100.94 69.8947 101.006 69.7361 101.123 69.6192C101.24 69.5023 101.399 69.4366 101.564 69.4366H479.286C479.452 69.4366 479.61 69.5023 479.727 69.6192C479.845 69.7361 479.91 69.8947 479.91 70.0601C479.91 70.2254 479.845 70.384 479.727 70.5009C479.61 70.6179 479.452 70.6835 479.286 70.6835Z" fill="#3F3D56"/>
<path d="M208.325 255.003C208.16 255.003 208.001 254.937 207.884 254.82C207.767 254.703 207.701 254.545 207.701 254.379V49.2548C207.701 49.0895 207.767 48.9309 207.884 48.814C208.001 48.697 208.16 48.6313 208.325 48.6313C208.491 48.6313 208.65 48.697 208.767 48.814C208.884 48.9309 208.95 49.0895 208.95 49.2548V254.379C208.95 254.545 208.884 254.703 208.767 254.82C208.65 254.937 208.491 255.003 208.325 255.003Z" fill="#3F3D56"/>
<path d="M302.6 255.003C302.434 255.003 302.275 254.937 302.158 254.82C302.041 254.703 301.975 254.545 301.975 254.379V49.2548C301.975 49.0895 302.041 48.9309 302.158 48.814C302.275 48.697 302.434 48.6313 302.6 48.6313C302.765 48.6313 302.924 48.697 303.041 48.814C303.158 48.9309 303.224 49.0895 303.224 49.2548V254.379C303.224 254.545 303.158 254.703 303.041 254.82C302.924 254.937 302.765 255.003 302.6 255.003Z" fill="#3F3D56"/>
<path d="M396.874 255.003C396.708 255.003 396.55 254.937 396.433 254.82C396.315 254.703 396.25 254.545 396.25 254.379V49.2548C396.25 49.0895 396.315 48.9309 396.433 48.814C396.55 48.697 396.708 48.6313 396.874 48.6313C397.04 48.6313 397.198 48.697 397.315 48.814C397.433 48.9309 397.498 49.0895 397.498 49.2548V254.379C397.498 254.545 397.433 254.703 397.315 254.82C397.198 254.937 397.04 255.003 396.874 255.003Z" fill="#3F3D56"/>
<path d="M147.712 135.038H124.899C124.154 135.037 123.44 134.741 122.913 134.215C122.387 133.689 122.09 132.976 122.09 132.232V105.348C122.09 104.604 122.387 103.891 122.913 103.365C123.44 102.839 124.154 102.543 124.899 102.542H147.712C148.457 102.543 149.171 102.839 149.698 103.365C150.225 103.891 150.521 104.604 150.522 105.348V132.232C150.521 132.976 150.225 133.689 149.698 134.215C149.171 134.741 148.457 135.037 147.712 135.038Z" fill="#6C63FF"/>
<path d="M180.178 211.725H157.364C156.62 211.725 155.905 211.429 155.379 210.903C154.852 210.377 154.556 209.664 154.555 208.92V182.036C154.556 181.292 154.852 180.579 155.379 180.053C155.905 179.527 156.62 179.231 157.364 179.23H180.178C180.922 179.231 181.637 179.527 182.163 180.053C182.69 180.579 182.986 181.292 182.987 182.036V208.92C182.986 209.664 182.69 210.377 182.163 210.903C181.637 211.429 180.922 211.725 180.178 211.725Z" fill="#6C63FF"/>
<path d="M253.849 151.248H231.036C230.291 151.247 229.577 150.951 229.05 150.425C228.523 149.899 228.227 149.186 228.226 148.442V121.558C228.227 120.814 228.523 120.101 229.05 119.575C229.577 119.049 230.291 118.753 231.036 118.753H253.849C254.594 118.753 255.308 119.049 255.835 119.575C256.361 120.101 256.658 120.814 256.659 121.558V148.442C256.658 149.186 256.361 149.899 255.835 150.425C255.308 150.951 254.594 151.247 253.849 151.248Z" fill="#6C63FF"/>
<path d="M349.372 121.945H326.559C325.814 121.944 325.1 121.648 324.573 121.122C324.047 120.596 323.75 119.883 323.749 119.139V92.2547C323.75 91.5109 324.047 90.7977 324.573 90.2718C325.1 89.7458 325.814 89.4499 326.559 89.4491H349.372C350.117 89.4499 350.831 89.7458 351.358 90.2718C351.884 90.7977 352.181 91.5109 352.182 92.2547V119.139C352.181 119.883 351.884 120.596 351.358 121.122C350.831 121.648 350.117 121.944 349.372 121.945Z" fill="#6C63FF"/>
<path d="M437.403 121.945H414.59C413.845 121.944 413.131 121.648 412.604 121.122C412.078 120.596 411.781 119.883 411.78 119.139V92.2547C411.781 91.5109 412.078 90.7977 412.604 90.2718C413.131 89.7458 413.845 89.4499 414.59 89.4491H437.403C438.148 89.4499 438.862 89.7458 439.389 90.2718C439.915 90.7977 440.212 91.5109 440.213 92.2547V119.139C440.212 119.883 439.915 120.596 439.389 121.122C438.862 121.648 438.148 121.944 437.403 121.945Z" fill="#6C63FF"/>
<path d="M477.985 129.426H455.172C454.427 129.425 453.713 129.13 453.186 128.604C452.659 128.078 452.363 127.364 452.362 126.621V99.7365C452.363 98.9927 452.659 98.2795 453.186 97.7535C453.713 97.2275 454.427 96.9317 455.172 96.9308H477.985C478.73 96.9317 479.444 97.2275 479.97 97.7535C480.497 98.2795 480.793 98.9927 480.794 99.7365V126.621C480.793 127.365 480.497 128.078 479.97 128.604C479.444 129.13 478.73 129.425 477.985 129.426Z" fill="#E6E6E6"/>
<path d="M459.879 177.434H437.066C436.321 177.433 435.607 177.137 435.08 176.611C434.554 176.085 434.257 175.372 434.256 174.628V147.744C434.257 147 434.554 146.287 435.08 145.761C435.607 145.235 436.321 144.939 437.066 144.939H459.879C460.624 144.939 461.338 145.235 461.865 145.761C462.391 146.287 462.688 147 462.689 147.744V174.628C462.688 175.372 462.391 176.085 461.865 176.611C461.338 177.137 460.624 177.433 459.879 177.434Z" fill="#E6E6E6"/>
<path d="M382.462 167.458H359.649C358.904 167.458 358.19 167.162 357.663 166.636C357.136 166.11 356.84 165.397 356.839 164.653V137.769C356.84 137.025 357.136 136.312 357.663 135.786C358.19 135.26 358.904 134.964 359.649 134.963H382.462C383.207 134.964 383.921 135.26 384.447 135.786C384.974 136.312 385.27 137.025 385.271 137.769V164.653C385.27 165.397 384.974 166.11 384.447 166.636C383.921 167.162 383.207 167.458 382.462 167.458Z" fill="#FF6584"/>
<path d="M338.134 177.434H315.321C314.576 177.433 313.862 177.137 313.335 176.611C312.808 176.085 312.512 175.372 312.511 174.628V147.744C312.512 147 312.808 146.287 313.335 145.761C313.862 145.235 314.576 144.939 315.321 144.939H338.134C338.879 144.939 339.593 145.235 340.12 145.761C340.646 146.287 340.943 147 340.944 147.744V174.628C340.943 175.372 340.646 176.085 340.12 176.611C339.593 177.137 338.879 177.433 338.134 177.434Z" fill="#E6E6E6"/>
<path d="M242.611 219.831H219.798C219.053 219.83 218.339 219.534 217.812 219.008C217.285 218.482 216.989 217.769 216.988 217.025V190.141C216.989 189.397 217.285 188.684 217.812 188.158C218.339 187.632 219.053 187.336 219.798 187.335H242.611C243.356 187.336 244.07 187.632 244.597 188.158C245.123 188.684 245.42 189.397 245.421 190.141V217.025C245.42 217.769 245.123 218.482 244.597 219.008C244.07 219.534 243.356 219.83 242.611 219.831Z" fill="#E6E6E6"/>
<path d="M127.109 184.292H104.296C103.551 184.292 102.837 183.996 102.31 183.47C101.784 182.944 101.487 182.231 101.487 181.487V154.603C101.487 153.859 101.784 153.146 102.31 152.62C102.837 152.094 103.551 151.798 104.296 151.797H127.109C127.854 151.798 128.568 152.094 129.095 152.62C129.622 153.146 129.918 153.859 129.919 154.603V181.487C129.918 182.231 129.622 182.944 129.095 183.47C128.568 183.996 127.854 184.292 127.109 184.292Z" fill="#FF6584"/>
<path d="M191.416 135.038H168.602C167.858 135.037 167.143 134.741 166.617 134.215C166.09 133.689 165.794 132.976 165.793 132.232V105.348C165.794 104.604 166.09 103.891 166.617 103.365C167.143 102.839 167.858 102.543 168.602 102.542H191.416C192.16 102.543 192.875 102.839 193.401 103.365C193.928 103.891 194.224 104.604 194.225 105.348V132.232C194.224 132.976 193.928 133.689 193.401 134.215C192.875 134.741 192.16 135.037 191.416 135.038Z" fill="#E6E6E6"/>
<path d="M172.738 60.4774H137.151C136.489 60.4774 135.854 60.2146 135.385 59.7469C134.917 59.2792 134.654 58.6449 134.654 57.9835C134.654 57.322 134.917 56.6877 135.385 56.22C135.854 55.7523 136.489 55.4896 137.151 55.4896H172.738C173.401 55.4896 174.036 55.7523 174.504 56.22C174.972 56.6877 175.236 57.322 175.236 57.9835C175.236 58.6449 174.972 59.2792 174.504 59.7469C174.036 60.2146 173.401 60.4774 172.738 60.4774Z" fill="#CCCCCC"/>
<path d="M273.256 60.4774H237.669C237.007 60.4774 236.371 60.2146 235.903 59.7469C235.435 59.2792 235.172 58.6449 235.172 57.9835C235.172 57.322 235.435 56.6877 235.903 56.22C236.371 55.7523 237.007 55.4896 237.669 55.4896H273.256C273.918 55.4896 274.553 55.7523 275.022 56.22C275.49 56.6877 275.753 57.322 275.753 57.9835C275.753 58.6449 275.49 59.2792 275.022 59.7469C274.553 60.2146 273.918 60.4774 273.256 60.4774Z" fill="#CCCCCC"/>
<path d="M367.53 60.4774H331.943C331.281 60.4774 330.646 60.2146 330.177 59.7469C329.709 59.2792 329.446 58.6449 329.446 57.9835C329.446 57.322 329.709 56.6877 330.177 56.22C330.646 55.7523 331.281 55.4896 331.943 55.4896H367.53C368.193 55.4896 368.828 55.7523 369.296 56.22C369.765 56.6877 370.028 57.322 370.028 57.9835C370.028 58.6449 369.765 59.2792 369.296 59.7469C368.828 60.2146 368.193 60.4774 367.53 60.4774Z" fill="#CCCCCC"/>
<path d="M455.561 60.4774H419.974C419.312 60.4774 418.677 60.2146 418.208 59.7469C417.74 59.2792 417.477 58.6449 417.477 57.9835C417.477 57.322 417.74 56.6877 418.208 56.22C418.677 55.7523 419.312 55.4896 419.974 55.4896H455.561C456.224 55.4896 456.859 55.7523 457.327 56.22C457.796 56.6877 458.059 57.322 458.059 57.9835C458.059 58.6449 457.796 59.2792 457.327 59.7469C456.859 60.2146 456.224 60.4774 455.561 60.4774Z" fill="#CCCCCC"/>
<path d="M93.0314 243.089C92.118 243 91.2352 242.711 90.4454 242.244C89.6556 241.778 88.9779 241.143 88.46 240.387C87.9421 239.63 87.5967 238.769 87.4481 237.865C87.2994 236.96 87.3512 236.034 87.5997 235.152L71.5962 220.275L80.0577 218.131L95.7945 230.877C97.2511 231.393 98.4679 232.423 99.2143 233.775C99.9607 235.126 100.185 236.704 99.8443 238.209C99.5037 239.714 98.6221 241.042 97.3664 241.942C96.1108 242.841 94.5683 243.249 93.0314 243.089Z" fill="#FFB8B8"/>
<path d="M115.13 353.047H122.784L126.425 323.563H115.128L115.13 353.047Z" fill="#FFB8B8"/>
<path d="M137.546 360.143L113.49 360.144L113.489 350.863L128.251 350.862C130.716 350.862 133.08 351.84 134.823 353.58C136.566 355.321 137.546 357.682 137.546 360.143L137.546 360.143Z" fill="#2F2E41"/>
<path d="M62.6487 347.527L70.0458 349.494L81.1596 321.939L70.2431 319.037L62.6487 347.527Z" fill="#FFB8B8"/>
<path d="M82.4825 360.146L59.236 353.967L61.6267 344.997L75.8916 348.789C78.2737 349.422 80.3063 350.974 81.5424 353.104C82.7784 355.234 83.1166 357.767 82.4825 360.146Z" fill="#2F2E41"/>
<path d="M124.842 347.464H113.163C112.425 347.467 111.713 347.194 111.167 346.698C110.621 346.203 110.28 345.521 110.212 344.788L103.122 271.26C103.07 270.721 102.832 270.216 102.448 269.833C102.065 269.449 101.56 269.211 101.02 269.158C100.48 269.106 99.9387 269.242 99.4883 269.544C99.0379 269.846 98.7066 270.295 98.5511 270.814L77.9647 339.521C77.747 340.251 77.2553 340.87 76.5923 341.247C75.9293 341.624 75.1461 341.731 74.406 341.545L63.5407 338.832C63.1615 338.737 62.8047 338.569 62.491 338.336C62.1773 338.103 61.9128 337.81 61.7128 337.475C61.5127 337.14 61.3811 336.768 61.3254 336.382C61.2698 335.995 61.2912 335.602 61.3884 335.224C61.5659 334.531 79.1262 266 79.2795 265.296C83.2583 236.012 88.0183 228.165 90.5756 223.95C90.7873 223.601 90.9818 223.28 91.1569 222.977C91.3761 222.598 92.7255 218.834 93.5816 216.39C93.6927 215.993 93.8852 215.622 94.1469 215.303C94.4086 214.983 94.7337 214.722 95.1018 214.534C105.847 209.046 118.419 212.845 122.016 214.14C122.613 214.35 123.125 214.747 123.476 215.272C134.267 231.527 128.972 325.934 127.8 344.694C127.752 345.445 127.419 346.148 126.869 346.663C126.32 347.177 125.595 347.464 124.842 347.464Z" fill="#2F2E41"/>
<path d="M94.7015 161.222C103.17 161.222 110.036 154.366 110.036 145.909C110.036 137.452 103.17 130.596 94.7015 130.596C86.2326 130.596 79.3672 137.452 79.3672 145.909C79.3672 154.366 86.2326 161.222 94.7015 161.222Z" fill="#FFB8B8"/>
<path d="M93.0767 219.363L92.9665 219.257C92.7599 219.057 72.3288 199.069 74.9729 180.586C76.1037 172.68 82.5088 167.629 93.4955 165.977C97.5317 165.379 101.649 166.255 105.09 168.445C108.531 170.636 111.064 173.992 112.225 177.899L123.089 214.986L93.0767 219.363Z" fill="#CCCCCC"/>
<path d="M82.6198 233.58L68.0613 219.134C67.0659 218.14 66.3432 216.908 65.9627 215.555C65.5822 214.202 65.5568 212.774 65.8888 211.408L72.9367 182.778C73.1478 181.921 73.5329 181.115 74.0684 180.412C74.6038 179.709 75.278 179.123 76.0494 178.69C76.8207 178.258 77.6728 177.988 78.5527 177.897C79.4327 177.807 80.3219 177.898 81.1653 178.164C82.7728 178.682 84.1155 179.804 84.9091 181.293C85.7026 182.782 85.8845 184.521 85.4165 186.141L77.9966 211.328L89.9952 224.194L82.6198 233.58Z" fill="#CCCCCC"/>
<path d="M160.706 184.277C160.321 185.109 159.758 185.847 159.057 186.438C158.356 187.029 157.533 187.46 156.647 187.699C155.761 187.939 154.833 187.981 153.929 187.824C153.025 187.667 152.166 187.313 151.414 186.789L131.979 196.848L132.838 188.303L150.067 177.655C151.034 176.45 152.409 175.642 153.932 175.382C155.455 175.123 157.021 175.43 158.332 176.247C159.644 177.063 160.61 178.331 161.047 179.811C161.485 181.291 161.363 182.88 160.706 184.277H160.706Z" fill="#FFB8B8"/>
<path d="M149.291 190.638L130.345 198.814C129.084 199.354 127.705 199.56 126.341 199.414C124.977 199.268 123.673 198.774 122.555 197.979L98.463 180.741C97.7439 180.226 97.1383 179.57 96.6835 178.812C96.2287 178.054 95.9344 177.211 95.8189 176.336C95.7034 175.46 95.7691 174.57 96.012 173.72C96.2549 172.871 96.6697 172.08 97.2308 171.397C98.3091 170.099 99.8512 169.271 101.53 169.088C103.21 168.906 104.894 169.383 106.227 170.42L126.885 186.656L143.305 180.312L149.291 190.638Z" fill="#CCCCCC"/>
<path d="M97.2436 150.816C99.1354 148.449 102.67 148.322 105.268 146.76C108.672 144.715 110.079 140.145 108.982 136.332C107.885 132.519 104.651 129.548 100.942 128.127C97.233 126.706 93.1068 126.688 89.1944 127.375C83.3692 128.398 77.6342 131.113 74.0814 135.835C70.5287 140.557 69.6246 147.473 72.8443 152.427C74.3242 154.705 76.6086 156.584 77.1994 159.234C77.975 162.713 75.5315 166.068 72.9138 168.49C69.9315 171.25 66.51 173.561 63.8972 176.672C61.2844 179.783 59.5421 184.033 60.7344 187.915C61.7333 191.167 64.6401 193.563 67.8277 194.763C71.0152 195.963 74.4869 196.136 77.8927 196.203C81.1999 196.268 84.7127 196.187 87.4987 194.406C90.4812 192.5 92.0737 188.883 92.1913 185.349C92.309 181.815 91.1263 178.352 89.5413 175.19C88.5965 173.305 87.498 171.479 86.8703 169.466C86.2425 167.454 86.1337 165.17 87.1391 163.317C88.1959 161.369 90.3339 160.194 92.5109 159.767C92.624 159.745 92.7437 159.725 92.8689 159.707C93.4883 159.627 94.085 159.422 94.6229 159.105C95.1607 158.788 95.6286 158.365 95.9982 157.862C96.3679 157.359 96.6315 156.787 96.7733 156.179C96.915 155.572 96.9319 154.942 96.823 154.328C96.5749 152.947 96.5964 151.626 97.2436 150.816Z" fill="#2F2E41"/>
<path d="M301.696 353.699H294.042L290.401 324.216L301.697 324.217L301.696 353.699Z" fill="#A0616A"/>
<path d="M288.574 351.515H303.336V360.797H279.28C279.28 359.578 279.52 358.371 279.988 357.245C280.455 356.119 281.139 355.096 282.002 354.234C282.865 353.372 283.89 352.688 285.018 352.222C286.145 351.755 287.354 351.515 288.574 351.515Z" fill="#2F2E41"/>
<path d="M357.234 345.041L350.272 348.216L334.692 322.91L344.968 318.223L357.234 345.041Z" fill="#A0616A"/>
<path d="M344.39 348.498L357.817 342.374L361.678 350.817L339.797 360.797C339.29 359.689 339.006 358.491 338.963 357.273C338.919 356.055 339.116 354.84 339.543 353.698C339.969 352.556 340.617 351.509 341.448 350.617C342.28 349.725 343.279 349.005 344.39 348.498Z" fill="#2F2E41"/>
<path d="M334.943 254.29C335.677 253.739 336.28 253.034 336.711 252.225C337.142 251.415 337.39 250.522 337.438 249.606C337.486 248.691 337.332 247.776 336.987 246.927C336.643 246.077 336.116 245.314 335.444 244.689L344.441 224.302L333.01 226.236L326.219 245.3C325.243 246.497 324.742 248.01 324.809 249.552C324.876 251.093 325.507 252.557 326.583 253.665C327.658 254.773 329.103 255.449 330.644 255.564C332.185 255.679 333.715 255.226 334.943 254.29Z" fill="#A0616A"/>
<path d="M301.208 345.925H293.896C293.187 345.923 292.505 345.654 291.985 345.171C291.466 344.689 291.148 344.029 291.094 343.323L287.106 236.984C287.077 236.576 287.136 236.167 287.281 235.785C287.427 235.403 287.654 235.057 287.946 234.772C288.239 234.487 288.591 234.269 288.977 234.133C289.363 233.998 289.774 233.948 290.181 233.988L332.47 238.473C333.156 238.54 333.793 238.856 334.26 239.361C334.728 239.866 334.993 240.524 335.007 241.212L335.893 288.12C335.897 288.374 335.947 288.626 336.039 288.864L353.386 333.787C353.52 334.134 353.584 334.504 353.573 334.876C353.562 335.248 353.478 335.614 353.324 335.953C353.171 336.292 352.951 336.597 352.679 336.85C352.406 337.103 352.085 337.3 351.736 337.429L344.326 340.155C343.682 340.392 342.974 340.385 342.335 340.137C341.696 339.888 341.17 339.415 340.856 338.806L319.546 297.426C319.43 297.201 319.345 296.962 319.294 296.714L315.653 279.198C315.548 278.69 315.265 278.236 314.854 277.918C314.444 277.6 313.934 277.438 313.415 277.462C312.896 277.485 312.403 277.692 312.023 278.046C311.643 278.4 311.402 278.877 311.343 279.393L303.999 343.439C303.921 344.123 303.593 344.755 303.079 345.214C302.564 345.672 301.898 345.926 301.208 345.925Z" fill="#2F2E41"/>
<path d="M304.849 153.836C313.318 153.836 320.183 146.98 320.183 138.523C320.183 130.066 313.318 123.21 304.849 123.21C296.38 123.21 289.515 130.066 289.515 138.523C289.515 146.98 296.38 153.836 304.849 153.836Z" fill="#A0616A"/>
<path d="M315.365 246.707C304.966 246.592 294.815 243.522 286.101 237.855L285.952 237.752L285.967 237.571L291.833 169.353C292.035 167.038 293.069 164.875 294.745 163.264C296.421 161.652 298.624 160.701 300.947 160.586C308.549 160.237 318.76 160.677 324.226 164.742C332.487 170.886 336.468 180.138 335.149 190.125C332.415 210.837 335.513 238.775 335.875 241.892L335.901 242.117L335.695 242.211C329.327 245.17 322.389 246.704 315.365 246.707Z" fill="#6C63FF"/>
<path d="M335.804 242.008C335.372 242.007 334.944 241.917 334.549 241.743C334.153 241.569 333.798 241.315 333.506 240.997L330.152 237.342C329.789 236.945 329.535 236.461 329.414 235.938C329.293 235.414 329.308 234.869 329.459 234.353L337.108 208.501L325.47 184.096C324.927 182.953 324.794 181.659 325.093 180.43C325.357 179.351 325.943 178.378 326.772 177.638C327.601 176.899 328.636 176.427 329.739 176.286C330.842 176.146 331.962 176.342 332.951 176.85C333.939 177.358 334.751 178.153 335.278 179.131L351.071 204.72C351.712 205.758 352.088 206.937 352.167 208.155C352.245 209.372 352.023 210.59 351.52 211.701L338.653 240.173C338.441 240.643 338.115 241.054 337.704 241.367C337.294 241.681 336.812 241.887 336.301 241.968C336.137 241.994 335.97 242.008 335.804 242.008Z" fill="#6C63FF"/>
<path d="M227.718 192.625C228.454 193.172 229.302 193.551 230.201 193.736C231.1 193.92 232.029 193.906 232.922 193.693C233.814 193.48 234.65 193.075 235.368 192.505C236.087 191.935 236.672 191.215 237.082 190.395L259.207 193.26L254.123 182.855L233.892 181.729C232.466 181.133 230.872 181.08 229.41 181.579C227.948 182.078 226.72 183.096 225.959 184.439C225.198 185.782 224.956 187.357 225.281 188.866C225.605 190.375 226.472 191.712 227.718 192.625V192.625Z" fill="#A0616A"/>
<path d="M276.486 198.308C276.1 198.308 275.716 198.281 275.334 198.228L240.527 193.407C239.958 193.329 239.418 193.111 238.954 192.773C238.491 192.434 238.119 191.985 237.873 191.468C237.793 191.301 237.727 191.128 237.674 190.951H237.674C237.54 190.49 237.502 190.007 237.564 189.532C237.626 189.056 237.785 188.598 238.033 188.188L240.914 183.419C241.224 182.909 241.659 182.487 242.179 182.194C242.699 181.901 243.286 181.746 243.883 181.744H243.888L274.228 181.779L296.887 161.505C297.941 160.564 299.288 160.014 300.7 159.947C301.94 159.889 303.169 160.209 304.223 160.863C305.278 161.517 306.109 162.474 306.608 163.61C307.106 164.745 307.248 166.005 307.015 167.222C306.783 168.44 306.186 169.559 305.303 170.431L282.693 195.543C281.91 196.413 280.953 197.109 279.884 197.585C278.814 198.062 277.657 198.308 276.486 198.308Z" fill="#6C63FF"/>
<path d="M306.592 152.146C307.994 148.908 309.18 144.594 306.492 142.305C304.933 140.976 302.687 140.974 300.645 140.808C294.89 140.343 288.966 137.699 286.153 132.663C283.341 127.628 284.911 120.141 290.218 117.87C293.795 116.338 297.896 117.381 301.64 118.442L312.881 121.625C316.222 122.571 319.729 123.614 322.133 126.115C325.968 130.104 325.682 136.846 322.636 141.464C319.59 146.082 315.002 150.898 309.751 152.651L306.592 152.146Z" fill="#2F2E41"/>
<path d="M461.685 361H0.743389C0.645585 361 0.548689 360.981 0.458249 360.944C0.367808 360.907 0.285608 360.852 0.21635 360.783C0.147092 360.714 0.0921395 360.632 0.0546459 360.542C0.0171524 360.452 -0.00215149 360.355 -0.00215149 360.258C-0.00215149 360.16 0.0171524 360.063 0.0546459 359.973C0.0921395 359.883 0.147092 359.801 0.21635 359.732C0.285608 359.663 0.367808 359.608 0.458249 359.571C0.548689 359.534 0.645585 359.515 0.743389 359.515H461.685C461.783 359.515 461.88 359.534 461.97 359.571C462.061 359.608 462.143 359.663 462.212 359.732C462.281 359.801 462.336 359.883 462.374 359.973C462.411 360.063 462.431 360.16 462.431 360.258C462.431 360.355 462.411 360.452 462.374 360.542C462.336 360.632 462.281 360.714 462.212 360.783C462.143 360.852 462.061 360.907 461.97 360.944C461.88 360.981 461.783 361 461.685 361Z" fill="#3F3D56"/>
</g>
<defs>
<clipPath id="clip0">
<rect width="513" height="361" fill="white"/>
</clipPath>
</defs>
</svg>
