<svg width="37" height="37" viewBox="0 0 37 37" fill="none" xmlns="http://www.w3.org/2000/svg">
<path d="M18.5 1.47998C9.11415 1.47998 1.48001 9.11412 1.48001 18.5C1.48001 27.8858 9.11415 35.52 18.5 35.52C27.8859 35.52 35.52 27.8858 35.52 18.5C35.52 9.11412 27.8859 1.47998 18.5 1.47998ZM26.8163 15.1873C26.8221 15.3637 26.8279 15.54 26.8279 15.7192C26.8279 21.1333 22.703 27.38 15.1642 27.38C12.8488 27.38 10.6924 26.7007 8.88001 25.5387C9.20087 25.5762 9.52462 25.5965 9.85704 25.5965C11.7793 25.5965 13.5455 24.9403 14.9474 23.8419C13.1552 23.8101 11.6406 22.622 11.1174 20.9946C11.3688 21.0437 11.6261 21.0697 11.892 21.0697C12.2649 21.0697 12.6263 21.0177 12.9702 20.9252C11.0971 20.5465 9.68361 18.8902 9.68361 16.9044C9.68361 16.887 9.68361 16.8697 9.68361 16.8523C10.2357 17.1587 10.8688 17.3437 11.5394 17.3669C10.4381 16.6297 9.71829 15.3752 9.71829 13.953C9.71829 13.2044 9.91775 12.499 10.2704 11.892C12.2938 14.3722 15.3145 16.0054 18.7197 16.1759C18.6503 15.8753 18.6127 15.5631 18.6127 15.2422C18.6127 12.9789 20.4483 11.1433 22.7117 11.1433C23.891 11.1433 24.9577 11.6405 25.7034 12.4383C26.6371 12.2533 27.5159 11.9122 28.3079 11.444C28.0015 12.4008 27.3511 13.2044 26.5042 13.7102C27.3338 13.609 28.1229 13.3922 28.86 13.0656C28.3108 13.8865 27.6141 14.6092 26.8163 15.1873Z" fill="white"/>
</svg>
