<svg width="32" height="32" viewBox="0 0 32 32" fill="none" xmlns="http://www.w3.org/2000/svg">
<path d="M3.80952 0C1.70536 0 0 1.70536 0 3.80952V28.1905C0 30.2946 1.70536 32 3.80952 32H28.1905C30.2946 32 32 30.2946 32 28.1905V3.80952C32 1.70536 30.2946 0 28.1905 0H3.80952ZM8.38095 3.04762H10.2113L11.4286 6.09524L12.6458 3.04762H14.4762L12.1905 8.38095V11.4286H10.6667V8.37202C10.2083 7.14583 8.69345 3.81845 8.38095 3.04762ZM16 5.33333C16.6786 5.33333 17.3482 5.53869 17.7768 6.05655C18.1042 6.42857 18.2857 7.03274 18.2857 7.8244V8.9375C18.2857 9.72917 18.1339 10.2798 17.8125 10.6518C17.3869 11.1637 16.6786 11.4286 16 11.4286C15.3214 11.4286 14.628 11.1637 14.2024 10.6518C13.875 10.2798 13.7143 9.72917 13.7143 8.9375V7.83036C13.7143 7.03869 13.8899 6.42857 14.2232 6.05655C14.6518 5.53869 15.2292 5.33333 16 5.33333ZM19.0476 5.33333H20.5714V9.90476C20.6101 10.1101 20.8304 10.2024 21.0357 10.2024C21.3482 10.2024 21.744 9.83631 22.0952 9.43155V5.33333H23.619V11.4286H22.0952V10.378C21.4792 10.9792 20.9524 11.4286 20.2589 11.4077C19.756 11.3899 19.4048 11.2083 19.2292 10.8423C19.125 10.628 19.0476 10.2857 19.0476 9.78274V5.33333ZM16 6.56845C15.8958 6.56845 15.7946 6.58929 15.7054 6.63095C15.6131 6.66964 15.5298 6.72619 15.4613 6.79762C15.3929 6.86607 15.3363 6.9494 15.2976 7.04464C15.2589 7.13691 15.2381 7.2381 15.2381 7.34524V9.48512C15.2381 9.6994 15.3244 9.89286 15.4613 10.0327C15.5298 10.1042 15.6131 10.1607 15.7054 10.1994C15.7946 10.2411 15.8958 10.2649 16 10.2649C16.1042 10.2649 16.2054 10.2411 16.2946 10.1994C16.5685 10.0833 16.7619 9.80655 16.7619 9.48512V7.34524C16.7619 6.91964 16.4196 6.56845 16 6.56845ZM15.9911 13.7143H16.006C16.006 13.7143 21.119 13.7143 24.5327 13.9583C25.0119 14.0119 26.0506 14.0179 26.9792 14.9702C27.7113 15.6875 27.9464 17.3333 27.9464 17.3333C27.9464 17.3333 28.1905 18.5 28.1905 20.4256V22.2321C28.1905 24.1607 27.9464 25.3244 27.9464 25.3244C27.9464 25.3244 27.7113 26.9702 26.9792 27.6875C26.0506 28.6399 25.0119 28.6488 24.5327 28.6994C21.119 28.9435 16 28.9524 16 28.9524C16 28.9524 9.66072 28.8899 7.71131 28.7083C7.16964 28.6101 5.9494 28.6399 5.02083 27.6964C4.28869 26.9702 4.05357 25.3274 4.05357 25.3274C4.05357 25.3274 3.80952 24.1607 3.80952 22.2321V20.4256C3.80952 18.5 4.05357 17.3333 4.05357 17.3333C4.05357 17.3333 4.28869 15.6875 5.02083 14.9732C5.9494 14.0208 6.9881 14.0119 7.46726 13.9583C10.881 13.7143 15.994 13.7143 15.994 13.7143H15.9911ZM6.09524 16.7619V18.2708H7.61905V25.9048H9.14286V18.2708H10.6667V16.7619H6.09524ZM16 16.7619V25.9048H17.5238V24.9524C18.006 25.5476 18.631 25.9048 19.1429 25.9048C19.7173 25.9048 20.2143 25.5952 20.4077 25.006C20.497 24.6875 20.5655 24.3899 20.5714 23.7143V21.619C20.5714 20.8661 20.4702 20.3006 20.372 19.9792C20.1815 19.3839 19.7173 19.0506 19.1429 19.0476C18.3958 19.0417 18.0952 19.4286 17.5238 20.0952V16.7619H16ZM10.6667 19.0476V24.1399C10.6667 24.6905 10.744 25.0595 10.8423 25.3006C11.0089 25.6935 11.3512 25.9048 11.8393 25.9048C12.3958 25.9048 13.1131 25.5119 13.7143 24.8661V25.9048H15.2381V19.0476H13.7143V23.8244C13.378 24.2708 12.8899 24.6012 12.5863 24.6012C12.3869 24.6012 12.2292 24.5179 12.1905 24.3006V19.0476H10.6667ZM23.6399 19.0476C22.872 19.0476 22.2738 19.2887 21.8393 19.747C21.5179 20.0833 21.3333 20.6339 21.3333 21.3482V23.6845C21.3333 24.3929 21.5387 24.8899 21.8571 25.2232C22.2917 25.6786 22.8899 25.9048 23.6756 25.9048C24.4613 25.9048 25.0804 25.6667 25.497 25.1815C25.6786 24.9673 25.7976 24.7262 25.8482 24.4583C25.8631 24.3363 25.9048 24.0089 25.9048 23.619H24.381V24.2292C24.381 24.5804 24.0387 24.869 23.619 24.869C23.1994 24.869 22.8571 24.5804 22.8571 24.2292V22.8571H25.9048V21.3185C25.9048 20.6042 25.7292 20.0833 25.4137 19.747C24.994 19.2887 24.3958 19.0476 23.6399 19.0476ZM23.619 20.1518C24.0387 20.1518 24.381 20.4375 24.381 20.7917V21.8036H22.8571V20.7917C22.8571 20.4375 23.1994 20.1518 23.619 20.1518ZM18.4554 20.378C18.869 20.378 19.0476 20.6339 19.0476 21.4286V23.5238C19.0476 24.3185 18.869 24.5923 18.4554 24.5923C18.2173 24.5923 17.7649 24.4315 17.5238 24.1905V20.8571C17.7649 20.619 18.2173 20.378 18.4554 20.378Z" fill="white"/>
</svg>
